<svg width="20" height="19" viewBox="0 0 20 19" fill="none" xmlns="http://www.w3.org/2000/svg">
<path fill-rule="evenodd" clip-rule="evenodd" d="M19.3581 17.7773L14.8463 13.3679V13.3667C17.49 9.80779 16.8418 4.79472 13.3799 2.02523C9.91796 -0.744262 4.88487 -0.276128 1.99312 3.08433C-0.898643 6.44478 -0.611156 11.4914 2.64352 14.5017C5.8982 17.512 10.9519 17.4056 14.0769 14.2608L18.5345 18.6173C18.7674 18.8391 19.1352 18.8329 19.3603 18.6032C19.5855 18.3736 19.5845 18.0057 19.3581 17.7773ZM14.3477 11.9867C13.0867 14.1707 10.7564 15.5161 8.23454 15.5161C4.33605 15.5161 1.17571 12.3558 1.17571 8.45731C1.17571 4.55883 4.33605 1.39848 8.23454 1.39848C10.7564 1.39848 13.0867 2.74389 14.3477 4.9279C15.6086 7.1119 15.6086 9.80271 14.3477 11.9867Z" fill="#BCC8D1"/>
</svg>
