<svg width="22" height="23" viewBox="0 0 22 23" fill="none" xmlns="http://www.w3.org/2000/svg">
<path fill-rule="evenodd" clip-rule="evenodd" d="M6.71429 1.5C7.10857 1.5 7.42857 1.82143 7.42857 2.21429V2.92857H14.5714V2.21429C14.5714 1.82143 14.8914 1.5 15.2857 1.5C15.68 1.5 16 1.82143 16 2.21429V2.92857H17.4286C19.4007 2.92857 21 4.52857 21 6.5V17.9286C21 19.9 19.4007 21.5 17.4286 21.5H4.57143C2.59929 21.5 1 19.9 1 17.9286V6.5C1 4.52857 2.59929 2.92857 4.57143 2.92857H6V2.21429C6 1.82143 6.32 1.5 6.71429 1.5ZM6 4.35714H4.57143C3.38786 4.35714 2.42857 5.31429 2.42857 6.5V7.92857H19.5714V6.5C19.5714 5.31429 18.6121 4.35714 17.4286 4.35714H16V5.07143C16 5.46429 15.68 5.78571 15.2857 5.78571C14.8914 5.78571 14.5714 5.46429 14.5714 5.07143V4.35714H7.42857V5.07143C7.42857 5.46429 7.10857 5.78571 6.71429 5.78571C6.32 5.78571 6 5.46429 6 5.07143V4.35714ZM19.5714 9.35714H2.42857V17.9286C2.42857 19.1143 3.38786 20.0714 4.57143 20.0714H17.4286C18.6121 20.0714 19.5714 19.1143 19.5714 17.9286V9.35714Z" fill="#BEC8D0"/>
</svg>
