<svg width="26" height="27" viewBox="0 0 26 27" fill="none" xmlns="http://www.w3.org/2000/svg">
<path d="M23.75 0.900024H2.15005C1.4035 0.900024 0.800049 1.51406 0.800049 2.27371V5.83155C0.800049 6.54999 1.0876 7.25606 1.5871 7.76433L8.90005 15.2056V25.6263C8.90005 26.103 9.14305 26.544 9.5413 26.7953C9.7573 26.9313 10.003 27 10.25 27C10.4566 27 10.6631 26.9519 10.8535 26.8558L16.2535 24.1084C16.7111 23.8749 17 23.3996 17 22.879V15.2056L24.313 7.76433C24.8125 7.25606 25.1 6.54999 25.1 5.83155V2.27371C25.1 1.51406 24.4966 0.900024 23.75 0.900024ZM14.6956 13.6657C14.4418 13.9226 14.3 14.2715 14.3 14.6369V22.03L11.6 23.4037V14.6369C11.6 14.2715 11.4583 13.9226 11.2045 13.6657L3.50005 5.83155V3.64739H22.4014L22.4041 5.82194L14.6956 13.6657Z" fill="#208CFF"/>
</svg>
